<svg width="168" height="55" viewBox="0 0 168 55" fill="none" xmlns="http://www.w3.org/2000/svg">
<g clip-path="url(#clip0_25_42)">
<path d="M56.1901 7.85456L51.8266 3.48377C51.2903 2.94731 50.6534 2.52236 49.9525 2.23334C49.2517 1.94433 48.5007 1.79697 47.7428 1.79973H39.9782C38.3406 1.79973 37.3087 1.6249 36.6028 1.37293C36.2989 1.26675 36.0093 1.1234 35.7404 0.946139C35.5124 0.793124 35.2978 0.62111 35.0987 0.431928C34.9378 0.291677 34.7287 0.219643 34.5156 0.231067C34.3026 0.242492 34.1024 0.336478 33.9573 0.493141C33.8123 0.649803 33.7337 0.856851 33.7384 1.07048C33.743 1.2841 33.8304 1.48754 33.9821 1.63775L38.7718 6.42763L40.2297 7.88799C40.767 8.42589 41.4953 8.72826 42.2549 8.72872H46.7725C44.4778 12.8835 42.3268 15.3672 40.4685 16.8121C39.6696 17.4527 38.7747 17.963 37.8169 18.3239C37.1505 18.5716 36.4461 18.7012 35.7353 18.707C35.1835 18.7109 34.6353 18.6178 34.1156 18.4319L33.9898 18.383C34.5476 17.7844 35.0623 17.1469 35.5299 16.4753C36.0515 15.7346 36.4937 14.9409 36.8493 14.1074C37.2334 13.2249 37.4401 12.2752 37.4576 11.3126C37.4656 10.1896 37.0999 9.09582 36.418 8.20423C35.0602 6.40449 33.361 4.79501 31.7644 3.27551C30.601 2.14883 29.2189 1.2737 27.7037 0.70446C26.4054 0.229751 25.0328 -0.008819 23.6507 -8.75011e-06C22.2778 0.00973573 20.9129 0.210483 19.5952 0.596476C19.4784 0.624188 19.3635 0.659398 19.2512 0.701889C18.9715 0.789305 18.7045 0.881863 18.4504 0.974421C18.0449 1.10455 17.6233 1.17724 17.1978 1.19039C16.9323 1.19405 16.6693 1.13873 16.4277 1.02841C16.1908 0.909713 15.9728 0.75634 15.7809 0.573336C15.6303 0.434869 15.4335 0.357832 15.2291 0.357368C15.1159 0.356552 15.0038 0.378941 14.8996 0.423158C14.7954 0.467375 14.7014 0.532483 14.6233 0.614473C14.4825 0.765783 14.4053 0.965576 14.4077 1.17239C14.4078 1.28406 14.4306 1.39453 14.4748 1.49708C14.5189 1.59963 14.5834 1.6921 14.6644 1.76888L16.1351 3.24209L17.2466 4.37078L19.4514 6.57932L21.3047 8.43305C21.4355 8.56492 21.5911 8.66961 21.7624 8.74108C21.9338 8.81256 22.1176 8.84943 22.3032 8.84956C22.5382 8.84987 22.7696 8.79061 22.9757 8.6773C24.9222 7.62996 27.0799 7.03671 29.2874 6.94184H29.3157C29.414 6.94093 29.5115 6.96033 29.602 6.99881C29.6926 7.0373 29.7742 7.09404 29.8419 7.16552C29.9743 7.30438 30.0503 7.48774 30.0549 7.67973C30.0549 7.78039 30.0348 7.88004 29.9959 7.97283C29.3739 9.41764 28.4414 10.7072 27.2648 11.7497C26.3156 12.5858 25.2835 13.3223 24.1846 13.948C24.0556 14.0214 23.9485 14.128 23.8745 14.2569C23.8004 14.3857 23.7622 14.5321 23.7637 14.6807C23.7646 14.793 23.7877 14.904 23.8318 15.0073C23.8759 15.1106 23.94 15.2041 24.0204 15.2823L29.1899 20.463C29.4152 20.6874 29.7091 20.8297 30.0246 20.867C30.3401 20.9043 30.659 20.8344 30.9302 20.6687C31.2973 20.445 31.6643 20.2111 32.0262 19.9668C32.3758 20.3512 32.6894 20.7668 32.9631 21.2086C33.179 21.5561 33.3588 21.9248 33.4996 22.309C33.6422 22.6909 33.7185 23.0944 33.7255 23.502C33.7257 23.8682 33.6478 24.2302 33.497 24.5638C33.304 24.9606 33.0283 25.3113 32.6885 25.5923C32.1023 26.0654 31.434 26.4263 30.7172 26.6567C29.6084 27.0262 28.4461 27.2087 27.2776 27.1966C24.1461 27.1966 19.8339 26.0371 14.4975 22.0802C12.7623 20.7947 11.674 19.8691 11.1607 19.432C10.9963 19.2904 10.7831 19.2186 10.5667 19.2321C10.3503 19.2455 10.1477 19.3432 10.002 19.5041C9.85641 19.6651 9.77931 19.8766 9.78717 20.0937C9.79503 20.3108 9.88722 20.5162 10.0441 20.6661C10.4343 21.0338 11.1735 21.7665 12.1591 22.7075C13.6351 24.1216 15.6603 26.0139 17.9011 27.8985C20.1419 29.7831 22.5881 31.6754 24.9316 33.0689C27.7216 34.6799 30.8875 35.5226 34.1079 35.5114C34.4262 35.5114 34.7419 35.5114 35.0602 35.4883C36.2668 35.412 37.448 35.1066 38.5408 34.5884C39.1098 34.319 39.6421 33.9777 40.1245 33.5728C40.5993 33.1744 40.9932 32.6882 41.2847 32.1407C41.5276 31.6635 41.6493 31.1337 41.6389 30.5981C41.6255 29.9829 41.5084 29.3744 41.2924 28.7984C41.0783 28.2188 40.8146 27.6588 40.5044 27.1246C40.4274 26.9755 40.2888 26.7287 40.0937 26.4022C39.3657 25.2042 38.5642 24.0528 37.6937 22.9544C38.0346 22.9928 38.3774 23.0117 38.7205 23.0109C39.8204 22.9969 40.915 22.8563 41.9829 22.5919C43.6438 22.1964 45.248 21.5917 46.7571 20.7921C47.4015 20.4522 48.017 20.0601 48.5975 19.6197C48.387 20.1493 48.1458 20.751 47.9045 21.3552C47.5605 22.2165 47.2166 23.0829 46.9548 23.736C46.8264 24.0625 46.7161 24.335 46.6391 24.5279L46.5492 24.7567L46.5235 24.821V24.839V24.8544C46.0675 26.0207 45.819 27.2581 45.7894 28.5104C45.7841 29.2455 45.9012 29.9762 46.136 30.6727C46.492 31.6543 47.0176 32.5654 47.6889 33.3646C48.3537 34.1976 49.134 35.0023 49.9451 35.8791L51.688 37.6377C51.805 37.7553 51.9561 37.8328 52.1198 37.8591C52.2835 37.8854 52.4513 37.8592 52.5992 37.7842C52.7144 37.7231 52.813 37.6348 52.8867 37.5271C52.9864 37.3842 53.0358 37.2121 53.027 37.0379C53.0181 36.8638 52.9516 36.6976 52.8379 36.5655C52.461 36.1272 52.1386 35.6446 51.8779 35.1283C51.4959 34.3976 51.2893 33.5877 51.2747 32.7629C51.2738 32.3692 51.3273 31.9773 51.4338 31.5983C51.4929 31.39 51.6007 31.0455 51.7521 30.6007C52.2655 29.0581 53.2922 26.253 54.3959 23.2269C55.4997 20.2008 56.7266 16.969 57.6352 14.4545C58.0495 13.3313 58.1338 12.1127 57.8782 10.9431C57.6225 9.77341 57.0376 8.70161 56.1927 7.85456H56.1901Z" fill="#ED4224"/>
<path d="M66.4804 11.5364L64.9865 16.0666H63.064L67.9409 1.6687H70.1817L75.0894 16.0666H73.1053L71.5652 11.5364H66.4804ZM71.1956 10.0812L69.7864 5.93665C69.4656 4.99565 69.2525 4.13691 69.0395 3.30646H68.9958C68.7905 4.16005 68.5338 5.03678 68.2771 5.91351L66.868 10.0812H71.1956Z" fill="#496370"/>
<path d="M82.2018 16.0666L82.0504 14.7631H81.9862C81.6199 15.2526 81.1425 15.6478 80.5935 15.9161C80.0445 16.1843 79.4397 16.3179 78.829 16.3057C76.7371 16.3057 75.6719 14.8325 75.6719 13.3362C75.6719 10.8345 77.8896 9.46672 81.881 9.47957V9.2636C81.881 8.41001 81.6448 6.86995 79.5324 6.86995C78.5826 6.87308 77.6522 7.14009 76.8449 7.64127L76.4188 6.39945C77.4415 5.78282 78.616 5.4649 79.8096 5.48158C82.9693 5.48158 83.7368 7.64127 83.7368 9.71354V13.5881C83.7233 14.4177 83.7808 15.2469 83.9088 16.0666H82.2018ZM81.922 10.7985C79.8686 10.7548 77.5585 11.1173 77.5585 13.1279C77.5585 14.3466 78.3696 14.9276 79.3296 14.9276C79.8755 14.9429 80.412 14.7833 80.8612 14.4721C81.3103 14.1609 81.6487 13.7144 81.8271 13.1973C81.8931 13.0043 81.9286 12.8022 81.9323 12.5983L81.922 10.7985Z" fill="#496370"/>
<path d="M86.576 5.7207L88.6037 11.5364C88.9271 12.404 89.2047 13.2879 89.4354 14.1846H89.4995C89.7331 13.331 90.0334 12.4749 90.3748 11.5364L92.3795 5.7207H94.3431L90.2876 16.0666H88.4908L84.5713 5.7207H86.576Z" fill="#496370"/>
<path d="M97.4593 2.82804C97.4593 3.13693 97.3368 3.43318 97.1187 3.6516C96.9006 3.87002 96.6049 3.99273 96.2965 3.99273C95.9881 3.99273 95.6924 3.87002 95.4743 3.6516C95.2562 3.43318 95.1337 3.13693 95.1337 2.82804C95.1295 2.67258 95.1569 2.51789 95.2144 2.37342C95.2718 2.22894 95.3581 2.09771 95.4678 1.98774C95.5776 1.87778 95.7086 1.79139 95.8529 1.73384C95.9971 1.6763 96.1516 1.64882 96.3068 1.65307C96.4614 1.64749 96.6154 1.67423 96.7592 1.73157C96.9029 1.78892 97.0331 1.87563 97.1415 1.98616C97.2499 2.0967 97.3342 2.22864 97.3889 2.37359C97.4436 2.51853 97.4676 2.6733 97.4593 2.82804ZM95.3673 16.0793V5.72048H97.2462V16.0664L95.3673 16.0793Z" fill="#496370"/>
<path d="M99.3584 14.1408C100.102 14.6064 100.956 14.8647 101.833 14.8889C103.198 14.8889 103.837 14.205 103.837 13.3463C103.837 12.449 103.306 11.9579 101.918 11.4437C100.062 10.7984 99.1864 9.76997 99.1864 8.52044C99.1864 6.8544 100.531 5.4866 102.749 5.4866C103.637 5.47751 104.512 5.69801 105.29 6.12679L104.821 7.49459C104.185 7.10432 103.454 6.89787 102.708 6.89811C101.599 6.89811 100.978 7.5383 100.978 8.30704C100.978 9.16321 101.599 9.54629 102.942 10.0605C104.738 10.7444 105.652 11.6417 105.652 13.1818C105.652 14.9969 104.243 16.267 101.789 16.267C100.778 16.2849 99.7793 16.0423 98.8887 15.5626L99.3584 14.1408Z" fill="#496370"/>
<path d="M107.318 0.89209H109.195V7.34544H109.238C109.555 6.78759 110.021 6.32912 110.583 6.02134C111.165 5.6774 111.828 5.49296 112.503 5.48657C113.889 5.48657 116.11 6.34015 116.11 9.91135V16.0665H114.223V10.1247C114.223 8.45613 113.604 7.03948 111.833 7.03948C111.27 7.0503 110.725 7.23735 110.273 7.5744C109.822 7.91144 109.487 8.38159 109.315 8.91892C109.214 9.20743 109.17 9.51329 109.187 9.81879V16.0665H107.318V0.89209Z" fill="#496370"/>
<path d="M120.27 10.4667H120.314C120.571 10.1042 120.933 9.65423 121.23 9.29171L124.259 5.72052H126.523L122.532 9.97561L127.078 16.0664H124.793L121.23 11.1069L120.27 12.1764V16.0664H118.415V0.897217H120.27V10.4667Z" fill="#496370"/>
<path d="M133.777 16.0666L133.628 14.7631H133.563C133.197 15.2526 132.72 15.6478 132.171 15.916C131.622 16.1843 131.017 16.3178 130.406 16.3057C128.314 16.3057 127.247 14.8325 127.247 13.3361C127.247 10.8345 129.467 9.46669 133.458 9.47955V9.26358C133.458 8.40999 133.222 6.86993 131.11 6.86993C130.16 6.87306 129.23 7.14006 128.422 7.64124L127.994 6.39942C129.017 5.78309 130.193 5.46521 131.387 5.48156C134.544 5.48156 135.314 7.64124 135.314 9.71351V13.5881C135.3 14.4176 135.356 15.2468 135.483 16.0666H133.777ZM133.499 10.7985C131.446 10.7548 129.136 11.1173 129.136 13.1279C129.136 14.3466 129.947 14.9276 130.907 14.9276C131.453 14.9428 131.989 14.7833 132.438 14.4721C132.888 14.1609 133.226 13.7143 133.404 13.1973C133.47 13.0043 133.506 12.8022 133.51 12.5982L133.499 10.7985Z" fill="#496370"/>
<path d="M143.315 16.0666L143.166 14.7631H143.102C142.736 15.2526 142.258 15.6478 141.709 15.9161C141.16 16.1843 140.555 16.3179 139.945 16.3057C137.853 16.3057 136.788 14.8325 136.788 13.3362C136.788 10.8345 139.005 9.46671 142.997 9.47957V9.2636C142.997 8.41001 142.761 6.86995 140.648 6.86995C139.698 6.87308 138.768 7.14009 137.961 7.64126L137.535 6.39944C138.556 5.78601 139.727 5.46993 140.918 5.48672C144.077 5.48672 144.845 7.64641 144.845 9.71868V13.5881C144.832 14.4176 144.888 15.2467 145.014 16.0666H143.315ZM143.038 10.7985C140.984 10.7548 138.674 11.1173 138.674 13.1279C138.674 14.3466 139.485 14.9276 140.445 14.9276C140.991 14.9429 141.528 14.7833 141.977 14.4721C142.426 14.1609 142.764 13.7143 142.943 13.1973C143.009 13.0043 143.044 12.8022 143.048 12.5983L143.038 10.7985Z" fill="#496370"/>
<path d="M147.137 8.9498C147.137 7.73112 147.114 6.68213 147.05 5.72055H148.693L148.757 7.75168H148.844C149.314 6.36331 150.443 5.48659 151.703 5.48659C151.883 5.48369 152.061 5.50531 152.235 5.55086V7.32489C152.025 7.27845 151.81 7.25688 151.596 7.26061C150.274 7.26061 149.334 8.2659 149.078 9.67483C149.025 9.96415 148.996 10.2574 148.993 10.5516V16.0665H147.137V8.9498Z" fill="#496370"/>
<path d="M64.147 19.7971H71.8936V21.3577H66.0053V26.1451H71.4444V27.6877H66.0053V34.195H64.147V19.7971Z" fill="#496370"/>
<path d="M82.4149 28.9398C82.4149 32.7655 79.7686 34.4341 77.2813 34.4341C74.4861 34.4341 72.3325 32.3773 72.3325 29.112C72.3325 25.6488 74.5939 23.6177 77.4533 23.6177C80.4077 23.6177 82.4149 25.7774 82.4149 28.9398ZM74.2191 29.0477C74.2191 31.3128 75.5231 33.0226 77.3558 33.0226C79.1885 33.0226 80.4924 31.3334 80.4924 29.004C80.4924 27.2506 79.6197 25.0292 77.4122 25.0292C75.2048 25.0292 74.2191 27.0809 74.2191 29.0529V29.0477Z" fill="#496370"/>
<path d="M92.6772 31.3669C92.6772 32.4339 92.7003 33.3749 92.7645 34.195H91.0986L90.9934 32.5059H90.9497C90.6024 33.1013 90.1031 33.5935 89.5032 33.9319C88.9033 34.2703 88.2243 34.4428 87.5359 34.4316C85.9137 34.4316 83.9731 33.5317 83.9731 29.8988V23.8542H85.8495V29.58C85.8495 31.5468 86.4475 32.8735 88.1596 32.8735C88.5089 32.8735 88.8547 32.8043 89.1771 32.6698C89.4995 32.5353 89.7922 32.3382 90.0382 32.0899C90.2842 31.8415 90.4787 31.5469 90.6105 31.2229C90.7422 30.8989 90.8087 30.552 90.806 30.2022V23.8542H92.6823L92.6772 31.3669Z" fill="#496370"/>
<path d="M95.0487 26.6542C95.0487 25.5847 95.0256 24.7079 94.9614 23.8543H96.6273L96.7325 25.5641H96.7684C97.106 24.9585 97.6025 24.457 98.2043 24.1139C98.8061 23.7708 99.4901 23.5993 100.182 23.6178C101.612 23.6178 103.83 24.474 103.83 28.022V34.1926H101.953V28.2354C101.953 26.5668 101.335 25.1784 99.5637 25.1784C98.994 25.1879 98.4423 25.3796 97.9893 25.7257C97.5362 26.0717 97.2055 26.5538 97.0457 27.1016C96.9555 27.3849 96.9121 27.681 96.9173 27.9783V34.1951H95.0487V26.6542Z" fill="#496370"/>
<path d="M115.062 19.0259V31.5289C115.062 32.4468 115.085 33.4958 115.149 34.2002H113.453L113.368 32.4005H113.324C112.749 33.5549 111.489 34.4316 109.803 34.4316C107.308 34.4316 105.388 32.3157 105.388 29.1738C105.365 25.7312 107.5 23.6152 110.008 23.6152C111.587 23.6152 112.652 24.3634 113.122 25.1964H113.196V19.0259H115.062ZM113.196 28.0631C113.2 27.7976 113.171 27.5326 113.111 27.2738C112.978 26.6541 112.635 26.0993 112.142 25.7024C111.648 25.3054 111.034 25.0905 110.401 25.0936C108.458 25.0936 107.308 26.8033 107.308 29.089C107.308 31.1844 108.335 32.9147 110.357 32.9147C111.003 32.9128 111.629 32.6888 112.131 32.2804C112.632 31.8719 112.978 31.3035 113.111 30.6702C113.174 30.4049 113.202 30.1328 113.196 29.8603V28.0631Z" fill="#496370"/>
<path d="M123.15 34.1949L123.001 32.8914H122.95C122.584 33.381 122.106 33.7762 121.557 34.0444C121.008 34.3126 120.404 34.4462 119.793 34.4341C117.701 34.4341 116.636 32.9583 116.636 31.4619C116.636 28.9603 118.853 27.5925 122.845 27.6053V27.3919C122.845 26.5358 122.609 24.9957 120.496 24.9957C119.546 24.9988 118.616 25.2659 117.809 25.767L117.383 24.5278C118.405 23.9091 119.579 23.5902 120.773 23.6073C123.933 23.6073 124.701 25.767 124.701 27.8393V31.7087C124.688 32.5382 124.744 33.3673 124.87 34.1872L123.15 34.1949ZM122.873 28.9166C120.82 28.8729 118.51 29.2354 118.51 31.2459C118.51 32.4646 119.321 33.0457 120.281 33.0457C120.827 33.0609 121.363 32.9013 121.812 32.5902C122.261 32.279 122.6 31.8324 122.778 31.3154C122.844 31.1224 122.88 30.9203 122.883 30.7163L122.873 28.9166Z" fill="#496370"/>
<path d="M129.149 20.8821V23.8542H131.836V25.2863H129.149V30.8526C129.149 32.1382 129.511 32.8632 130.555 32.8632C130.922 32.8686 131.288 32.8253 131.644 32.7346L131.729 34.1462C131.195 34.3336 130.631 34.4208 130.065 34.4033C129.19 34.4033 128.487 34.1256 128.037 33.614C127.504 33.0637 127.314 32.1382 127.314 30.9272V25.2863H125.712V23.8542H127.314V21.3732L129.149 20.8821Z" fill="#496370"/>
<path d="M135.294 20.9464C135.294 21.2553 135.171 21.5516 134.953 21.77C134.735 21.9884 134.439 22.1111 134.131 22.1111C133.823 22.1111 133.527 21.9884 133.309 21.77C133.091 21.5516 132.968 21.2553 132.968 20.9464C132.964 20.791 132.991 20.6363 133.049 20.4918C133.106 20.3473 133.193 20.2161 133.302 20.1062C133.412 19.9962 133.543 19.9098 133.687 19.8523C133.832 19.7947 133.986 19.7672 134.141 19.7715C134.296 19.7659 134.45 19.7926 134.594 19.85C134.737 19.9073 134.868 19.994 134.976 20.1046C135.084 20.2151 135.169 20.347 135.223 20.492C135.278 20.6369 135.302 20.7917 135.294 20.9464ZM133.202 34.1951V23.8543H135.081V34.1951H133.202Z" fill="#496370"/>
<path d="M146.796 28.9398C146.796 32.7655 144.149 34.4341 141.662 34.4341C138.867 34.4341 136.713 32.3773 136.713 29.112C136.713 25.6488 138.975 23.6177 141.834 23.6177C144.789 23.6177 146.796 25.7774 146.796 28.9398ZM138.608 29.0529C138.608 31.318 139.909 33.0277 141.744 33.0277C143.541 33.0277 144.881 31.3386 144.881 29.0092C144.881 27.2557 144.008 25.0343 141.801 25.0343C139.593 25.0343 138.608 27.0809 138.608 29.0529Z" fill="#496370"/>
<path d="M148.418 26.6542C148.418 25.5846 148.395 24.7079 148.331 23.8543H149.996L150.102 25.5641H150.158C150.496 24.9587 150.992 24.4573 151.594 24.1143C152.196 23.7712 152.88 23.5995 153.572 23.6178C155.002 23.6178 157.222 24.4739 157.222 28.022V34.1925H155.343V28.2354C155.343 26.5668 154.724 25.1784 152.953 25.1784C152.384 25.1878 151.832 25.3796 151.379 25.7256C150.926 26.0717 150.595 26.5538 150.435 27.1016C150.345 27.3848 150.302 27.681 150.307 27.9783V34.1951H148.431L148.418 26.6542Z" fill="#496370"/>
<path d="M168 42.6924H0V43.366H168V42.6924Z" fill="#868B8D"/>
<path d="M24.2664 54.8869H23.042L22.3721 53.2928H19.2508L18.5732 54.8869H17.395L20.2929 48.2407H21.3659L24.2664 54.8869ZM20.8114 49.6214L19.682 52.2619H21.9485L20.8114 49.6214Z" fill="#868B8D"/>
<path d="M33.4504 54.8869H32.2261L31.5587 53.2928H28.4426L27.765 54.8869H26.5791L29.4796 48.2407H30.5448L33.4504 54.8869ZM29.9955 49.6214L28.8661 52.2619H31.1352L29.9955 49.6214Z" fill="#868B8D"/>
<path d="M40.1986 48.2869H41.4486L38.7098 54.933H37.6831L34.9443 48.2869H36.2277L38.2144 53.3596L40.1986 48.2869Z" fill="#868B8D"/>
<path d="M45.6894 48.2869V54.8868H44.5317V48.2869H45.6894Z" fill="#868B8D"/>
<path d="M51.8675 51.0586C53.2587 51.3979 53.9851 51.8993 53.9851 53.0023C53.9851 54.2467 53.0149 54.982 51.6314 54.982C50.6154 54.9864 49.6345 54.6094 48.8823 53.9253L49.5805 53.0948C50.1377 53.638 50.8822 53.9455 51.6596 53.9536C52.3757 53.9536 52.8275 53.6245 52.8275 53.1154C52.8275 52.6063 52.5708 52.3801 51.3388 52.087C49.9373 51.7476 49.1467 51.3311 49.1467 50.1073C49.1467 48.9554 50.0887 48.1841 51.3952 48.1841C52.2656 48.1661 53.1138 48.4597 53.7875 49.012L53.1663 49.8887C52.6579 49.4713 52.0266 49.2328 51.3696 49.21C50.6919 49.21 50.2966 49.5596 50.2966 50.0019C50.3095 50.5315 50.6047 50.7578 51.8675 51.0586Z" fill="#868B8D"/>
<path d="M58.3897 52.1049V54.8868H57.2397V48.2869H58.3974V51.0302H61.5391V48.2869H62.6968V54.8868H61.5391V52.1049H58.3897Z" fill="#868B8D"/>
<path d="M72.1016 54.8868H70.6975L68.449 51.9172L67.4223 52.9739V54.8868H66.2646V48.2869H67.4223V51.6061L70.5563 48.2869H71.9784L69.2396 51.115L72.1016 54.8868Z" fill="#868B8D"/>
<path d="M81.1443 54.8869H79.9199L79.2526 53.2928H76.1365L75.4588 54.8869H74.2729L77.1734 48.2407H78.2464L81.1443 54.8869ZM77.6894 49.6214L76.56 52.2619H78.829L77.6894 49.6214Z" fill="#868B8D"/>
<path d="M90.3283 54.8869H89.1065L88.4365 53.2928H85.323L84.6453 54.8869H83.4595L86.3574 48.2407H87.4303L90.3283 54.8869ZM86.8759 49.6214L85.7465 52.2619H88.013L86.8759 49.6214Z" fill="#868B8D"/>
<path d="M97.5669 54.8868L95.9472 52.5857H94.497V54.8868H93.3394V48.2869H96.2758C97.7928 48.2869 98.7245 49.089 98.7245 50.3797C98.7245 51.475 98.0751 52.1332 97.1511 52.3877L98.9299 54.8868H97.5669ZM96.1834 49.3436H94.497V51.5598H96.1911C97.0201 51.5598 97.5463 51.1253 97.5463 50.4466C97.5386 49.7215 97.0381 49.3436 96.1834 49.3436Z" fill="#868B8D"/>
<path d="M109.859 55C107.806 55 106.443 53.5294 106.443 51.5959C106.435 51.146 106.518 50.699 106.686 50.2816C106.854 49.8642 107.103 49.4847 107.42 49.1656C107.737 48.8466 108.115 48.5944 108.53 48.4241C108.946 48.2537 109.392 48.1686 109.841 48.1739C110.77 48.1301 111.678 48.4522 112.372 49.0712L111.638 49.9479C111.392 49.7138 111.103 49.5307 110.786 49.4094C110.469 49.288 110.132 49.2307 109.793 49.2408C108.578 49.2408 107.657 50.295 107.657 51.5779C107.657 52.9457 108.55 53.9433 109.898 53.9433C110.467 53.9499 111.023 53.7752 111.487 53.4445V52.2104H109.803V51.2H112.606V53.9716C111.844 54.6352 110.869 55.0005 109.859 55Z" fill="#868B8D"/>
<path d="M120.219 54.8868L118.599 52.5857H117.149V54.8868H115.991V48.2869H118.928C120.445 48.2869 121.376 49.089 121.376 50.3797C121.376 51.475 120.727 52.1332 119.803 52.3877L121.582 54.8868H120.219ZM118.843 49.3436H117.149V51.5598H118.843C119.672 51.5598 120.198 51.1253 120.198 50.4466C120.198 49.7215 119.69 49.3436 118.843 49.3436Z" fill="#868B8D"/>
<path d="M127.827 55C127.155 54.9909 126.501 54.7831 125.947 54.4028C125.392 54.0225 124.963 53.4865 124.711 52.8623C124.46 52.2381 124.399 51.5535 124.535 50.8945C124.671 50.2354 124.999 49.6314 125.476 49.1582C125.954 48.685 126.561 48.3638 127.22 48.2349C127.88 48.1059 128.562 48.1751 129.183 48.4337C129.803 48.6922 130.333 49.1286 130.707 49.688C131.08 50.2475 131.28 50.905 131.282 51.578C131.293 52.0337 131.211 52.4869 131.041 52.9097C130.871 53.3324 130.616 53.7159 130.292 54.0364C129.969 54.3569 129.583 54.6078 129.159 54.7735C128.735 54.9392 128.282 55.0163 127.827 55ZM127.827 49.2409C126.518 49.2409 125.607 50.2873 125.607 51.578C125.607 52.8686 126.538 53.9356 127.845 53.9356C129.151 53.9356 130.068 52.8892 130.068 51.596C130.068 50.3027 129.131 49.2409 127.827 49.2409Z" fill="#868B8D"/>
<path d="M140.094 52.0303C140.094 53.9997 138.982 54.9896 137.27 54.9896C135.558 54.9896 134.467 53.9997 134.467 52.0869V48.2869H135.625V52.0406C135.625 53.2644 136.254 53.9252 137.291 53.9252C138.328 53.9252 138.946 53.303 138.946 52.0869V48.2869H140.104L140.094 52.0303Z" fill="#868B8D"/>
<path d="M146.031 52.7656H144.724V54.8868H143.566V48.2869H146.164C147.704 48.2869 148.667 49.1559 148.667 50.5031C148.667 51.9918 147.481 52.7656 146.031 52.7656ZM146.069 49.3436H144.724V51.7192H146.069C146.944 51.7192 147.491 51.2384 147.491 50.5314C147.491 49.7498 146.934 49.3436 146.069 49.3436Z" fill="#868B8D"/>
</g>
<defs>
<clipPath id="clip0_25_42">
<rect width="168" height="55" fill="white"/>
</clipPath>
</defs>
</svg>
